
<svg fill="none" xmlns="http://www.w3.org/2000/svg" viewBox="27 26 173.76 174.13">
<g fill="#fff">
<path d="M98.11 175.95L30.81 99.24V46.83l67.3 38.87z"/>
<path d="M115.3 48.19l-67.3-20.67 67.3-1.36z"/>
<path d="M129.99 175.95l67.3-76.71V46.83l-67.3 38.87z"/>
<path d="M112.8 48.19l67.3-20.67-67.3-1.36z"/>
<path d="M129.99 175.95l-31.88-130.8-67.3 54.09z"/>
<path d="M129.99 175.95l31.88-130.8 67.3 54.09z"/>
<path d="M44.99 26.39l84.99 22.08-16.92-22.08z"/>
<path d="M182.81 26.39l-84.99 22.08 16.92-22.08z"/>
<path d="M182.81 26.39H44.99l67.3 149.56z"/>
</g>
<path d="M113.95 26.39H44.99l67.3 149.56z" fill="#000"/>
<path d="M44.99 26.39l84.99 22.08-16.92-22.08z" fill="#1e1e1e"/>
<path d="M44.99 26.39l84.99 22.08-67.3 127.48z" fill="#2a2a2a"/>
<path d="M129.98 48.47l-67.29 127.48 100.1-149.56z" fill="#1e1e1e"/>
<path d="M129.98 48.47l-67.29 127.48L129.98 26.39z" fill="#1e1e1e"/>
<path d="M44.99 26.39l84.99 22.08L44.99 99.24z" fill="#1c1c1c"/>
<path d="M129.98 48.47L44.99 99.24l17.69-72.85z" fill="#1e1e1e"/>
<path d="M129.98 48.47L44.99 99.24l84.99 76.71z" fill="#1c1c1c"/>
<path d="M44.99 99.24l84.99 76.71-84.99-50.63z" fill="#1e1e1e"/>
<path d="M129.98 175.95L44.99 125.33V99.24z" fill="#1c1c1c"/>
<path d="M129.98 175.95L44.99 125.33l17.69 50.62z" fill="#1a1a1a"/>
<path d="M44.99 125.32l17.69 50.63-31.87-76.71z" fill="#1c1c1c"/>
<path d="M44.99 125.32l-14.18-26.08-17.69 24.72z" fill="#1e1e1e"/>
<path d="M30.81 99.24L13.12 124l17.69-77.17z" fill="#1c1c1c"/>
<path d="M13.12 124l17.69-77.17L13.12 75.91z" fill="#1a1a1a"/>
<path d="M30.81 46.83L13.12 75.9l31.87-49.52z" fill="#1c1c1c"/>
<path d="M30.81 46.83l14.18-20.44-14.18-7.22z" fill="#1e1e1e"/>
<path d="M44.99 26.39l-14.18-7.22h68.32z" fill="#1c1c1c"/>
<path d="M30.81 19.17h68.32L82.8 1.48z" fill="#1a1a1a"/>
<path d="M99.14 19.17L82.82 1.48h31.15z" fill="#1c1c1c"/>
<path d="M99.14 19.17l14.9-17.69 16.96 17.69z" fill="#232323"/>
<path d="M113.86 1.48l17.14 17.69h51.64z" fill="#232323"/>
<path d="M130.82 19.17h51.99l-34.85-17.69z" fill="#252525"/>
<path d="M182.8 19.17l-34.85-17.69h34.85z" fill="#232323"/>
<path d="M182.8 1.48v17.69l14.21 27.66z" fill="#252525"/>
<path d="M182.8 19.17l14.21 27.66-14.21 7.22z" fill="#232323"/>
<path d="M182.8 54.05l14.21-27.66-14.21 72.85z" fill="#252525"/>
<path d="M182.8 99.24l14.21-72.85-14.21 97.93z" fill="#232323"/>
<path d="M182.8 124.32l14.21-97.93-31.9 149.56z" fill="#252525"/>
<path d="M182.8 124.32l-17.69 51.63 17.69-26.54z" fill="#232323"/>
<path d="M182.8 149.41L165.1 175.95h17.7z" fill="#252525"/>
<path d="M182.8 175.95h-17.7l-35.11-7.26z" fill="#232323"/>
<path d="M129.99 168.69l35.11 7.26-35.11 24.18z" fill="#1e1e1e"/>
<path d="M129.99 168.69l-0.01 31.44h-17.68z" fill="#1c1c1c"/>
<path d="M130.01 200.13h-17.71l17.7-31.44z" fill="#1e1e1e"/>
<path d="M112.3 200.13l17.7-31.44-35.04 31.44z" fill="#1c1c1c"/>
<path d="M112.3 200.13l-17.34 0.01-17.69-24.19z" fill="#1e1e1e"/>
<path d="M112.3 200.13L77.27 175.95l35.03-7.26z" fill="#1c1c1c"/>
<path d="M77.27 175.95l35.03-7.26-35.03-50.63z" fill="#1e1e1e"/>
<path d="M77.27 175.95l0.01-57.89-31.88 7.27z" fill="#1c1c1c"/>
<path d="M77.28 118.06l-31.88 7.27 31.87-50.63z" fill="#1e1e1e"/>
<path d="M77.27 74.7l-31.87 50.63 31.87-78.31z" fill="#1c1c1c"/>
<path d="M77.27 47.02l-31.87 78.31 31.87-1.37z" fill="#1a1a1a"/>
<path d="M45.4 125.33l31.87 1.37-31.87 23.98z" fill="#1c1c1c"/>
<path d="M45.4 125.33l31.87 25.35L45.4 175.95z" fill="#1a1a1a"/>
<path d="M45.4 125.33l0.01 50.62H30.83z" fill="#1c1c1c"/>
<path d="M45.4 175.95H30.83l14.57 24.19z" fill="#1a1a1a"/>
<path d="M30.83 175.95l14.57 24.19h-14.61z" fill="#1c1c1c"/>
<path d="M30.83 175.95l-0.04 24.19H13.12z" fill="#1a1a1a"/>
<path d="M30.83 175.95l-17.71 24.19 17.71-76.14z" fill="#1c1c1c"/>
<path d="M13.12 200.14l17.71-76.14-17.71 51.96z" fill="#1a1a1a"/>
<path d="M13.12 175.96l17.71-51.96-17.71 1.33z" fill="#1c1c1c"/>
<path d="M13.12 125.33l17.71-1.33-17.71 26.08z" fill="#1e1e1e"/>
</svg>
