
<svg xmlns="http://www.w3.org/2000/svg" viewBox="0 0 256 256">
  <path fill="#007ACC" d="M0 128v128h256V0H0z"/>
  <path fill="#FFF" d="M56.6 99.9v14.3h41.8v118.4h28.9V114.2h41.8V99.9z"/>
  <path fill="#FFF" d="M206.9 113.8c-4.7-2.5-10.3-3.6-16.8-3.6-5 0-9.7.8-14.2 2.3-4.4 1.5-8.1 4.1-11.1 7.8v-8.1h-27.4v119.1h28.9v-70c0-4.5.5-8.5 1.7-11.9 1.1-3.3 2.8-6 4.9-8.1 2.1-2.1 4.8-3.8 7.9-4.8 3.1-1 6.6-1.5 10.4-1.5 5.7 0 9.8 1.7 12.4 5 2.6 3.3 3.9 8.7 3.9 15.9v75.5h28.9v-80.8c0-15-3.3-26-9.8-33-6.6-7-16.4-10.6-29.7-10.6z"/>
</svg>
